{"glyphs":{"0":{"ha":1528,"x_min":0,"x_max":0,"o":"m 1181 1111 l 69 1111 l 69 278 l 347 0 l 1458 0 l 1458 833 z m 1066 833 l 1181 718 l 1181 393 l 1099 474 l 821 752 l 740 833 z m 462 278 l 347 393 l 347 833 l 903 278 z "},"1":{"ha":1528,"x_min":0,"x_max":0,"o":"m 903 278 l 903 1111 l 69 1111 l 69 833 l 625 833 l 625 278 l 69 278 l 69 0 l 1458 0 l 1458 278 z "},"2":{"ha":1528,"x_min":0,"x_max":0,"o":"m 1181 1111 l 69 1111 l 69 833 l 1066 833 l 1181 718 l 1181 694 l 347 694 l 69 417 l 69 0 l 1458 0 l 1458 278 l 347 278 l 347 302 l 462 417 l 1458 417 l 1458 833 z "},"3":{"ha":1528,"x_min":0,"x_max":0,"o":"m 1181 1111 l 69 1111 l 69 833 l 1066 833 l 1181 718 l 1181 694 l 69 694 l 69 417 l 1066 417 l 1181 302 l 1181 278 l 69 278 l 69 0 l 1458 0 l 1458 417 l 1215 660 l 1458 660 l 1458 833 z "},"4":{"ha":1528,"x_min":0,"x_max":0,"o":"m 1181 1111 l 1181 694 l 462 694 l 347 809 l 347 1111 l 69 1111 l 69 694 l 347 417 l 1066 417 l 1181 302 l 1181 0 l 1458 0 l 1458 417 l 1215 660 l 1458 660 l 1458 1111 z "},"5":{"ha":1528,"x_min":0,"x_max":0,"o":"m 1458 1111 l 69 1111 l 69 694 l 347 417 l 1066 417 l 1181 302 l 1181 278 l 69 278 l 69 0 l 1458 0 l 1458 417 l 1181 694 l 462 694 l 347 809 l 347 833 l 1458 833 z "},"6":{"ha":1528,"x_min":0,"x_max":0,"o":"m 69 694 l 313 451 l 69 451 l 69 278 l 347 0 l 1458 0 l 1458 417 l 1181 694 l 462 694 l 347 809 l 347 833 l 1458 833 l 1458 1111 l 69 1111 z m 347 417 l 1066 417 l 1181 302 l 1181 278 l 462 278 l 347 393 z "},"7":{"ha":1528,"x_min":0,"x_max":0,"o":"m 1458 1111 l 69 1111 l 69 833 l 1181 833 l 1181 809 l 1066 694 l 347 694 l 69 417 l 69 0 l 347 0 l 347 302 l 462 417 l 1181 417 l 1458 694 z "},"8":{"ha":1528,"x_min":0,"x_max":0,"o":"m 1458 833 l 1181 1111 l 69 1111 l 69 694 l 313 451 l 69 451 l 69 278 l 347 0 l 1458 0 l 1458 417 l 1215 660 l 1458 660 z m 347 833 l 1066 833 l 1181 718 l 1181 694 l 462 694 l 347 809 z m 462 278 l 347 393 l 347 417 l 1066 417 l 1181 302 l 1181 278 z "},"9":{"ha":1528,"x_min":0,"x_max":0,"o":"m 1458 833 l 1181 1111 l 69 1111 l 69 694 l 347 417 l 1066 417 l 1181 302 l 1181 278 l 69 278 l 69 0 l 1458 0 l 1458 417 l 1215 660 l 1458 660 z m 462 694 l 347 809 l 347 833 l 1066 833 l 1181 718 l 1181 694 z "},"=":{"ha":694,"x_min":0,"x_max":0,"o":"m 69 0 l 625 0 l 625 740 l 69 740 z m 139 69 l 139 671 l 556 671 l 556 69 z "},"]":{"ha":694,"x_min":0,"x_max":0,"o":"m 69 0 l 625 0 l 625 740 l 69 740 z m 139 69 l 139 671 l 556 671 l 556 69 z "}," ":{"ha":417,"x_min":0,"x_max":0,"o":""},"(":{"ha":694,"x_min":0,"x_max":0,"o":"m 347 1111 l 69 833 l 69 278 l 347 0 l 625 0 l 625 278 l 462 278 l 347 393 l 347 718 l 462 833 l 625 833 l 625 1111 z "},")":{"ha":694,"x_min":0,"x_max":0,"o":"m 347 1111 l 69 1111 l 69 833 l 232 833 l 347 718 l 347 393 l 232 278 l 69 278 l 69 0 l 347 0 l 625 278 l 625 833 z "},"/":{"ha":972,"x_min":0,"x_max":0,"o":"m 903 1111 l 625 1111 l 625 891 l 81 347 l 69 335 l 69 0 l 347 0 l 347 220 l 891 764 l 903 776 z "},"<":{"ha":694,"x_min":0,"x_max":0,"o":"m 347 833 l 69 556 l 69 278 l 347 0 l 625 0 l 625 278 l 462 278 l 347 393 l 347 441 l 462 556 l 625 556 l 625 833 z "},">":{"ha":694,"x_min":0,"x_max":0,"o":"m 625 556 l 347 833 l 69 833 l 69 556 l 232 556 l 347 441 l 347 393 l 232 278 l 69 278 l 69 0 l 347 0 l 625 278 z "},"@":{"ha":1528,"x_min":0,"x_max":0,"o":"m 1181 1111 l 69 1111 l 69 833 l 1066 833 l 1181 718 l 1181 393 l 1066 278 l 1042 278 l 1042 694 l 347 694 l 69 417 l 69 0 l 625 0 l 764 139 l 764 0 l 1181 0 l 1458 278 l 1458 833 z m 625 393 l 510 278 l 347 278 l 347 302 l 462 417 l 764 417 l 764 254 z "},"A":{"ha":1528,"x_min":0,"x_max":0,"o":"m 903 1111 l 69 278 l 69 0 l 938 0 l 1181 243 l 1181 0 l 1458 0 l 1458 1111 z m 1181 313 l 1019 474 l 822 278 l 462 278 l 1018 833 l 1181 833 z "},"B":{"ha":1528,"x_min":0,"x_max":0,"o":"m 1458 1111 l 347 1111 l 69 833 l 69 0 l 1458 0 l 1458 451 l 1215 451 l 1458 694 z m 1181 417 l 1181 278 l 347 278 l 347 718 l 462 833 l 1181 833 l 1181 809 l 1066 694 l 486 694 l 486 417 z "},"C":{"ha":1528,"x_min":0,"x_max":0,"o":"m 347 718 l 462 833 l 1458 833 l 1458 1111 l 347 1111 l 69 833 l 69 0 l 1458 0 l 1458 278 l 347 278 z "},"D":{"ha":1528,"x_min":0,"x_max":0,"o":"m 69 1111 l 69 0 l 1181 0 l 1458 278 l 1458 1111 z m 1181 393 l 1066 278 l 347 278 l 347 833 l 1181 833 z "},"E":{"ha":1528,"x_min":0,"x_max":0,"o":"m 69 1111 l 69 660 l 313 660 l 69 417 l 69 0 l 1458 0 l 1458 278 l 347 278 l 347 302 l 462 417 l 1458 417 l 1458 694 l 347 694 l 347 833 l 1458 833 l 1458 1111 z "},"F":{"ha":1528,"x_min":0,"x_max":0,"o":"m 1458 1111 l 69 1111 l 69 660 l 313 660 l 69 417 l 69 0 l 347 0 l 347 302 l 462 417 l 1458 417 l 1458 694 l 347 694 l 347 833 l 1458 833 z "},"G":{"ha":1528,"x_min":0,"x_max":0,"o":"m 347 1111 l 69 833 l 69 0 l 1458 0 l 1458 417 l 1181 694 l 486 694 l 486 417 l 1066 417 l 1181 302 l 1181 278 l 347 278 l 347 718 l 462 833 l 1458 833 l 1458 1111 z "},"H":{"ha":1528,"x_min":0,"x_max":0,"o":"m 1181 1111 l 1181 694 l 347 694 l 347 1111 l 69 1111 l 69 0 l 347 0 l 347 417 l 1181 417 l 1181 0 l 1458 0 l 1458 1111 z "},"I":{"ha":1528,"x_min":0,"x_max":0,"o":"m 69 1111 l 69 833 l 625 833 l 625 278 l 69 278 l 69 0 l 1458 0 l 1458 278 l 903 278 l 903 833 l 1458 833 l 1458 1111 z "},"J":{"ha":1528,"x_min":0,"x_max":0,"o":"m 1458 1111 l 69 1111 l 69 833 l 1181 833 l 1181 393 l 1066 278 l 347 278 l 347 486 l 69 486 l 69 0 l 1181 0 l 1458 278 z "},"K":{"ha":1528,"x_min":0,"x_max":0,"o":"m 729 1111 l 496 878 l 680 694 l 347 694 l 347 1111 l 69 1111 l 69 0 l 347 0 l 347 417 l 1066 417 l 1181 302 l 1181 0 l 1458 0 l 1458 417 l 1181 694 l 705 694 l 844 833 l 1458 833 l 1458 1111 z "},"L":{"ha":1528,"x_min":0,"x_max":0,"o":"m 740 278 l 544 474 l 347 671 l 347 1111 l 69 1111 l 69 556 l 625 0 l 1458 0 l 1458 278 z "},"M":{"ha":1528,"x_min":0,"x_max":0,"o":"m 1181 1111 l 590 1111 l 590 868 l 347 1111 l 69 1111 l 69 0 l 347 0 l 347 718 l 429 637 l 625 441 l 625 0 l 903 0 l 903 556 l 625 833 l 1066 833 l 1181 718 l 1181 0 l 1458 0 l 1458 833 z "},"N":{"ha":1528,"x_min":0,"x_max":0,"o":"m 1181 1111 l 1181 278 l 1018 278 l 903 393 l 903 833 l 625 1111 l 69 1111 l 69 0 l 347 0 l 347 833 l 510 833 l 625 718 l 625 278 l 903 0 l 1458 0 l 1458 1111 z "},"O":{"ha":1528,"x_min":0,"x_max":0,"o":"m 347 1111 l 69 833 l 69 0 l 1181 0 l 1458 278 l 1458 1111 z m 1181 393 l 1066 278 l 347 278 l 347 718 l 462 833 l 1181 833 z "},"P":{"ha":1528,"x_min":0,"x_max":0,"o":"m 1181 1111 l 69 1111 l 69 521 l 313 521 l 69 278 l 69 0 l 347 0 l 347 163 l 462 278 l 1458 278 l 1458 833 z m 1181 556 l 347 556 l 347 833 l 1066 833 l 1181 718 z "},"Q":{"ha":1528,"x_min":0,"x_max":0,"o":"m 1181 1111 l 69 1111 l 69 278 l 347 0 l 625 0 l 821 -196 l 1018 0 l 1458 0 l 1458 833 z m 903 278 l 660 35 l 660 278 l 462 278 l 347 393 l 347 833 l 1066 833 l 1181 718 l 1181 278 z "},"R":{"ha":1528,"x_min":0,"x_max":0,"o":"m 1458 1111 l 347 1111 l 69 833 l 69 0 l 347 0 l 347 417 l 1066 417 l 1181 302 l 1181 0 l 1458 0 l 1458 417 l 1215 660 l 1458 660 z m 1181 694 l 347 694 l 347 718 l 462 833 l 1181 833 z "},"S":{"ha":1528,"x_min":0,"x_max":0,"o":"m 347 1111 l 69 833 l 69 417 l 1066 417 l 1181 302 l 1181 278 l 69 278 l 69 0 l 1458 0 l 1458 417 l 1181 694 l 347 694 l 347 718 l 462 833 l 1458 833 l 1458 1111 z "},"T":{"ha":1528,"x_min":0,"x_max":0,"o":"m 868 1111 l 868 868 l 625 1111 l 69 1111 l 69 833 l 510 833 l 625 718 l 625 0 l 903 0 l 903 833 l 1458 833 l 1458 1111 z "},"U":{"ha":1528,"x_min":0,"x_max":0,"o":"m 1181 1111 l 1181 278 l 462 278 l 347 393 l 347 1111 l 69 1111 l 69 278 l 347 0 l 1458 0 l 1458 1111 z "},"V":{"ha":1528,"x_min":0,"x_max":0,"o":"m 1181 1111 l 1181 278 l 1018 278 l 347 948 l 347 1111 l 69 1111 l 69 833 l 903 0 l 1458 0 l 1458 1111 z "},"W":{"ha":1528,"x_min":0,"x_max":0,"o":"m 1181 1111 l 1181 393 l 1066 278 l 903 278 l 903 1111 l 625 1111 l 625 393 l 510 278 l 347 278 l 347 1111 l 69 1111 l 69 0 l 625 0 l 868 243 l 868 0 l 1181 0 l 1458 278 l 1458 1111 z "},"X":{"ha":1528,"x_min":0,"x_max":0,"o":"m 1181 1111 l 1181 694 l 462 694 l 347 809 l 347 1111 l 69 1111 l 69 694 l 313 451 l 69 451 l 69 0 l 347 0 l 347 417 l 1066 417 l 1181 302 l 1181 0 l 1458 0 l 1458 417 l 1215 660 l 1458 660 l 1458 1111 z "},"Y":{"ha":1528,"x_min":0,"x_max":0,"o":"m 1181 1111 l 1181 694 l 462 694 l 347 809 l 347 1111 l 69 1111 l 69 694 l 347 417 l 1066 417 l 1181 302 l 1181 278 l 69 278 l 69 0 l 1458 0 l 1458 417 l 1215 660 l 1458 660 l 1458 1111 z "},"Z":{"ha":1538,"x_min":0,"x_max":0,"o":"m 352 302 l 467 417 l 1185 417 l 1463 694 l 1463 1111 l 74 1111 l 74 833 l 1185 833 l 1185 809 l 1070 694 l 352 694 l 74 417 l 74 0 l 1463 0 l 1463 278 l 352 278 z "},"\\":{"ha":972,"x_min":0,"x_max":0,"o":"m 903 0 l 625 0 l 625 220 l 81 764 l 69 776 l 69 1111 l 347 1111 l 347 891 l 891 347 l 903 335 z "},"^":{"ha":972,"x_min":0,"x_max":0,"o":"m 903 833 l 625 1111 l 347 1111 l 69 833 l 69 556 l 347 556 l 347 718 l 462 833 l 510 833 l 625 718 l 625 556 l 903 556 z "},"_":{"ha":1528,"x_min":0,"x_max":0,"o":"m 69 0 l 1458 0 l 1458 278 l 69 278 z "},"|":{"ha":417,"x_min":0,"x_max":0,"o":"m 69 -139 l 347 -139 l 347 1250 l 69 1250 z "}}}
